<svg width="16" height="16" viewBox="0 0 16 16" fill="none" xmlns="http://www.w3.org/2000/svg">
<g clip-path="url(#clip0_947_202)">
<path d="M9.56258 9.09156C8.60133 9.09156 7.68758 8.63594 6.98914 7.81031C6.35195 7.05562 5.98633 6.08313 5.98633 5.1425C5.98633 3.16812 7.5907 1.5625 9.56258 1.5625C11.5345 1.5625 13.1388 3.16813 13.1388 5.14125C13.1388 6.08188 12.7732 7.05438 12.136 7.80906C11.4376 8.63594 10.5238 9.09156 9.56258 9.09156ZM9.56258 3.125C9.02837 3.12599 8.51636 3.33882 8.13885 3.71679C7.76135 4.09477 7.54916 4.60704 7.54883 5.14125C7.54883 6.22281 8.44695 7.52906 9.56258 7.52906C10.6782 7.52906 11.5763 6.22281 11.5763 5.14125C11.576 4.60704 11.3638 4.09477 10.9863 3.71679C10.6088 3.33882 10.0968 3.12599 9.56258 3.125Z" fill="#3E3E3E"/>
<path d="M15.2188 16C15.0115 16 14.8128 15.9177 14.6663 15.7712C14.5198 15.6247 14.4375 15.426 14.4375 15.2188V13.6985C14.4375 12.4485 13.6922 11.7041 12.4438 11.7041H6.68125C5.43125 11.7041 4.6875 12.4497 4.6875 13.6985V15.2188C4.6875 15.426 4.60519 15.6247 4.45868 15.7712C4.31216 15.9177 4.11345 16 3.90625 16C3.69905 16 3.50034 15.9177 3.35382 15.7712C3.20731 15.6247 3.125 15.426 3.125 15.2188V13.6985C3.125 12.6672 3.46875 11.7785 4.11438 11.1313C4.76 10.4841 5.64937 10.1416 6.68125 10.1416H12.4438C13.475 10.1416 14.3634 10.4854 15.0106 11.1313C15.6578 11.7772 16 12.6663 16 13.6985V15.2188C16 15.426 15.9177 15.6247 15.7712 15.7712C15.6247 15.9177 15.426 16 15.2188 16Z" fill="#3E3E3E"/>
<path d="M4.46875 8.46875H0.78125C0.57405 8.46875 0.375336 8.38644 0.228823 8.23993C0.08231 8.09341 0 7.8947 0 7.6875C0 7.4803 0.08231 7.28159 0.228823 7.13507C0.375336 6.98856 0.57405 6.90625 0.78125 6.90625H4.46875C4.67595 6.90625 4.87466 6.98856 5.02118 7.13507C5.16769 7.28159 5.25 7.4803 5.25 7.6875C5.25 7.8947 5.16769 8.09341 5.02118 8.23993C4.87466 8.38644 4.67595 8.46875 4.46875 8.46875Z" fill="#3E3E3E"/>
<path d="M2.625 10.2969C2.4178 10.2969 2.21909 10.2146 2.07257 10.0681C1.92606 9.92154 1.84375 9.72283 1.84375 9.51562V5.85938C1.84375 5.65217 1.92606 5.45346 2.07257 5.30695C2.21909 5.16043 2.4178 5.07812 2.625 5.07812C2.8322 5.07812 3.03091 5.16043 3.17743 5.30695C3.32394 5.45346 3.40625 5.65217 3.40625 5.85938V9.51562C3.40625 9.61822 3.38604 9.71981 3.34678 9.8146C3.30752 9.90938 3.24997 9.99551 3.17743 10.0681C3.10488 10.1406 3.01876 10.1981 2.92397 10.2374C2.82919 10.2767 2.7276 10.2969 2.625 10.2969Z" fill="#3E3E3E"/>
</g>
<defs>
<clipPath id="clip0_947_202">
<rect width="16" height="16" fill="white"/>
</clipPath>
</defs>
</svg>
