<svg width="16" height="9" viewBox="0 0 16 9" fill="none" xmlns="http://www.w3.org/2000/svg">
<path d="M15.5124 1.04521C15.5175 0.841466 15.451 0.641385 15.3222 0.472787C15.1933 0.304188 15.0085 0.175449 14.7935 0.104469C14.5786 0.0334898 14.3441 0.0237958 14.1226 0.0767349C13.9012 0.129674 13.7038 0.242616 13.558 0.399858L7.77407 6.39955L1.99221 0.399858C1.90225 0.291086 1.78804 0.199991 1.65663 0.13228C1.52521 0.0645685 1.37944 0.0216989 1.22852 0.0063551C1.0776 -0.0089887 0.92477 0.00352432 0.779543 0.0431104C0.634315 0.0826964 0.499807 0.148502 0.384524 0.236408C0.269242 0.324314 0.175728 0.432425 0.109641 0.553971C0.0435534 0.675518 0.00643444 0.807881 0.000577927 0.942772C-0.00527859 1.07766 0.0201826 1.21217 0.0755348 1.33788C0.130887 1.46359 0.214849 1.57779 0.322166 1.67333L6.9358 8.54243C7.03939 8.6503 7.16796 8.73692 7.31287 8.79632C7.45778 8.85572 7.6155 8.88647 7.77508 8.88647C7.93466 8.88647 8.09239 8.85572 8.2373 8.79632C8.3822 8.73692 8.51091 8.6503 8.6145 8.54243L15.2345 1.67333C15.4079 1.49981 15.5065 1.27724 15.5127 1.04521H15.5124Z" fill="#C0C0C0"/>
</svg>
