<svg width="24" height="24" viewBox="0 0 24 24" fill="none" xmlns="http://www.w3.org/2000/svg">
<mask id="path-1-outside-1_599_80" maskUnits="userSpaceOnUse" x="0" y="12.4134" width="24" height="12" fill="black">
<rect fill="white" y="12.4134" width="24" height="12"/>
<path fill-rule="evenodd" clip-rule="evenodd" d="M11.999 13.4134C17.289 13.4134 21.8015 17.0113 22.9715 22.1639C22.9851 22.2236 22.9924 22.2826 22.994 22.3407C22.998 22.377 23 22.4139 23 22.4512C23 23.0035 22.5523 23.4512 22 23.4512H2.51858C2.36191 23.4913 2.18689 23.493 2 23.4512C1.44772 23.4512 1 23.0035 1 22.4512C1 22.4172 1.0017 22.3836 1.00501 22.3505C1.00605 22.2892 1.0134 22.2269 1.02765 22.1639C2.19657 17.0124 6.70798 13.4134 11.999 13.4134ZM3.58541 21.4512H20.4123C19.104 17.9888 15.8028 15.6635 11.999 15.6635C8.194 15.6635 4.89336 17.9892 3.58541 21.4512Z"/>
</mask>
<path fill-rule="evenodd" clip-rule="evenodd" d="M11.999 13.4134C17.289 13.4134 21.8015 17.0113 22.9715 22.1639C22.9851 22.2236 22.9924 22.2826 22.994 22.3407C22.998 22.377 23 22.4139 23 22.4512C23 23.0035 22.5523 23.4512 22 23.4512H2.51858C2.36191 23.4913 2.18689 23.493 2 23.4512C1.44772 23.4512 1 23.0035 1 22.4512C1 22.4172 1.0017 22.3836 1.00501 22.3505C1.00605 22.2892 1.0134 22.2269 1.02765 22.1639C2.19657 17.0124 6.70798 13.4134 11.999 13.4134ZM3.58541 21.4512H20.4123C19.104 17.9888 15.8028 15.6635 11.999 15.6635C8.194 15.6635 4.89336 17.9892 3.58541 21.4512Z" fill="#3E3E3E"/>
<path d="M22.9715 22.1639L23.1666 22.1198L23.1666 22.1197L22.9715 22.1639ZM22.994 22.3407L22.794 22.3463L22.7943 22.3545L22.7952 22.3626L22.994 22.3407ZM2.51858 23.4512V23.2512H2.49339L2.46898 23.2575L2.51858 23.4512ZM2 23.4512L2.04361 23.256L2.02207 23.2512H2V23.4512ZM1.00501 22.3505L1.20402 22.3704L1.20484 22.3622L1.20498 22.3539L1.00501 22.3505ZM1.02765 22.1639L0.832612 22.1197L0.832588 22.1198L1.02765 22.1639ZM3.58541 21.4512L3.39831 21.3806L3.29605 21.6512H3.58541V21.4512ZM20.4123 21.4512V21.6512H20.7017L20.5994 21.3805L20.4123 21.4512ZM23.1666 22.1197C21.9758 16.8757 17.3822 13.2134 11.999 13.2134V13.6134C17.1958 13.6134 21.6272 17.1468 22.7765 22.2082L23.1666 22.1197ZM23.1939 22.3352C23.1919 22.264 23.183 22.1921 23.1666 22.1198L22.7765 22.2081C22.7871 22.2551 22.7928 22.3012 22.794 22.3463L23.1939 22.3352ZM22.7952 22.3626C22.7984 22.3916 22.8 22.4212 22.8 22.4512H23.2C23.2 22.4066 23.1976 22.3624 23.1928 22.3189L22.7952 22.3626ZM22.8 22.4512C22.8 22.8931 22.4418 23.2512 22 23.2512V23.6512C22.6627 23.6512 23.2 23.114 23.2 22.4512H22.8ZM22 23.2512H2.51858V23.6512H22V23.2512ZM1.95638 23.6464C2.17045 23.6943 2.37763 23.6938 2.56819 23.645L2.46898 23.2575C2.3462 23.2889 2.20333 23.2917 2.04361 23.256L1.95638 23.6464ZM2 23.2512C1.55817 23.2512 1.2 22.8931 1.2 22.4512H0.8C0.8 23.114 1.33726 23.6512 2 23.6512V23.2512ZM1.2 22.4512C1.2 22.4239 1.20136 22.3969 1.20402 22.3704L0.806005 22.3306C0.80203 22.3703 0.8 22.4106 0.8 22.4512H1.2ZM0.832588 22.1198C0.815312 22.1961 0.806313 22.2721 0.80504 22.3471L1.20498 22.3539C1.20579 22.3064 1.21148 22.2577 1.22272 22.2081L0.832588 22.1198ZM11.999 13.2134C6.61476 13.2134 2.02224 16.8769 0.832612 22.1197L1.2227 22.2082C2.3709 17.1479 6.8012 13.6134 11.999 13.6134V13.2134ZM3.58541 21.6512H20.4123V21.2512H3.58541V21.6512ZM11.999 15.8635C15.7193 15.8635 18.9462 18.137 20.2252 21.5219L20.5994 21.3805C19.2618 17.8406 15.8863 15.4635 11.999 15.4635V15.8635ZM3.7725 21.5219C5.05116 18.1374 8.2775 15.8635 11.999 15.8635V15.4635C8.1105 15.4635 4.73555 17.841 3.39831 21.3806L3.7725 21.5219Z" fill="white" mask="url(#path-1-outside-1_599_80)"/>
<path d="M11.9992 11.2254C14.8457 11.2254 17.1619 8.90913 17.1619 6.06268C17.1619 3.21623 14.8457 0.9 11.9992 0.9C9.15275 0.9 6.83652 3.21623 6.83652 6.06268C6.83652 8.90913 9.15275 11.2254 11.9992 11.2254ZM11.9992 3.35008C13.4954 3.35008 14.7118 4.56648 14.7118 6.06268C14.7118 7.55888 13.4954 8.77528 11.9992 8.77528C10.5041 8.77528 9.2866 7.55885 9.2866 6.06268C9.2866 4.5665 10.5041 3.35008 11.9992 3.35008Z" fill="#3E3E3E" stroke="white" stroke-width="0.2"/>
</svg>
