<svg width="21" height="18" viewBox="0 0 21 18" fill="none" xmlns="http://www.w3.org/2000/svg">
<path d="M11.8348 17.9999L11.7739 10.4657L15.3242 10.4362L15.3925 17.9778L13.6912 16.7581L11.8348 17.9999Z" fill="#FCC71B"/>
<path d="M16.1511 10.7352C15.413 9.79406 14.0032 9.77746 13.7061 9.77376C13.1957 9.75028 12.6877 9.85695 12.2299 10.0838C11.8528 10.2711 11.5181 10.5336 11.2463 10.8551C10.0709 12.2723 11.2463 13.7706 10.2591 15.1749C9.33647 16.4887 7.41 16.5625 7.14243 16.5662C5.98175 16.5755 4.321 16.0994 3.65302 14.7468C3.45262 14.3366 3.34968 13.8857 3.35224 13.4293C1.80405 13.1617 0.81498 11.7464 1.02903 10.427C1.20249 9.37334 2.12513 8.49499 3.31164 8.31046C3.31164 8.28647 3.31164 8.25326 3.31164 8.21266C3.3264 7.93218 3.38545 6.85085 4.11064 6.10536C4.96132 5.23438 6.2161 5.34879 6.38587 5.36724C6.55748 2.86874 8.81425 0.942273 11.3847 1.00132C13.8279 1.06591 15.8983 2.91303 16.092 5.28236C16.9036 5.28013 17.6872 5.57858 18.2916 6.12012C18.578 6.38127 18.8077 6.6985 18.9664 7.05211C19.1251 7.40573 19.2095 7.78819 19.2142 8.17576C19.2142 9.28292 19.2204 10.3901 19.2327 11.4973C19.255 11.6886 19.2393 11.8825 19.1864 12.0678C19.1335 12.253 19.0445 12.426 18.9245 12.5767C18.4226 13.1488 17.4317 13.1303 16.9187 12.7317C16.3042 12.2575 16.7766 11.5415 16.1511 10.7352Z" stroke="#3E3E3E" stroke-width="2" stroke-miterlimit="10"/>
</svg>
