<svg width="22" height="21" viewBox="0 0 22 21" fill="none" xmlns="http://www.w3.org/2000/svg">
<path d="M3.78125 18.7031C3.40154 18.7031 3.09375 18.4093 3.09375 18.0469V2.70703C3.09375 1.21435 4.36593 0 5.92969 0H18.2188C18.5985 0 18.9062 0.293836 18.9062 0.65625V15.75C18.9062 16.1124 18.5985 16.4062 18.2188 16.4062C17.839 16.4062 17.5312 16.1124 17.5312 15.75V1.3125H5.92969C5.12411 1.3125 4.46875 1.93807 4.46875 2.70703V18.0469C4.46875 18.4093 4.16096 18.7031 3.78125 18.7031Z" fill="black"/>
<path d="M18.2188 21H6.1875C4.4816 21 3.09375 19.6752 3.09375 18.0469C3.09375 16.4185 4.4816 15.0938 6.1875 15.0938H18.2188C18.5985 15.0938 18.9062 15.3876 18.9062 15.75C18.9062 16.1124 18.5985 16.4062 18.2188 16.4062H6.1875C5.23978 16.4062 4.46875 17.1422 4.46875 18.0469C4.46875 18.9515 5.23978 19.6875 6.1875 19.6875H18.2188C18.5985 19.6875 18.9062 19.9813 18.9062 20.3438C18.9062 20.7062 18.5985 21 18.2188 21Z" fill="black"/>
<path d="M18.2188 18.7031H6.1875C5.80779 18.7031 5.5 18.4093 5.5 18.0469C5.5 17.6845 5.80779 17.3906 6.1875 17.3906H18.2188C18.5985 17.3906 18.9062 17.6845 18.9062 18.0469C18.9062 18.4093 18.5985 18.7031 18.2188 18.7031Z" fill="black"/>
<path d="M6.875 16.4062C6.49529 16.4062 6.1875 16.1124 6.1875 15.75V0.65625C6.1875 0.293836 6.49529 0 6.875 0C7.25471 0 7.5625 0.293836 7.5625 0.65625V15.75C7.5625 16.1124 7.25471 16.4062 6.875 16.4062Z" fill="black"/>
</svg>
