<svg width="20" height="20" viewBox="0 0 20 20" fill="none" xmlns="http://www.w3.org/2000/svg">
<path fill-rule="evenodd" clip-rule="evenodd" d="M5.67 0H14.34C17.73 0 20 2.38 20 5.92V14.091C20 17.62 17.73 20 14.34 20H5.67C2.28 20 0 17.62 0 14.091V5.92C0 2.38 2.28 0 5.67 0ZM9.42998 12.99L14.18 8.23999C14.52 7.9 14.52 7.35 14.18 7C13.84 6.66 13.28 6.66 12.94 7L8.80998 11.13L7.06 9.37999C6.72 9.03999 6.16 9.03999 5.82 9.37999C5.48 9.71999 5.48 10.27 5.82 10.62L8.19998 12.99C8.36998 13.16 8.58998 13.24 8.80998 13.24C9.03998 13.24 9.25998 13.16 9.42998 12.99Z" fill="#3E3E3E"/>
</svg>
