<svg width="15" height="15" viewBox="0 0 15 15" fill="none" xmlns="http://www.w3.org/2000/svg">
<path d="M1.42191 14.5725C1.05416 14.5936 0.692485 14.4734 0.413161 14.2372C-0.13772 13.6923 -0.13772 12.8122 0.413161 12.2673L12.4757 0.405807C13.0486 -0.1214 13.9477 -0.0920931 14.4838 0.471323C14.9687 0.980817 14.9969 1.76392 14.55 2.3059L2.41643 14.2372C2.14071 14.4699 1.78484 14.5899 1.42191 14.5725Z" fill="#8D8D9B"/>
<path d="M13.4702 14.5726C13.0975 14.571 12.7403 14.4255 12.4757 14.1674L0.413108 2.30588C-0.0972546 1.71983 -0.0278681 0.837855 0.568117 0.335952C1.10005 -0.111984 1.88454 -0.111984 2.41643 0.335952L14.55 12.1975C15.1228 12.7248 15.1524 13.6089 14.6162 14.1722C14.5948 14.1946 14.5728 14.2163 14.55 14.2373C14.2529 14.4913 13.8619 14.6127 13.4702 14.5726Z" fill="#8D8D9B"/>
</svg>
