<svg width="31" height="27" viewBox="0 0 31 27" fill="none" xmlns="http://www.w3.org/2000/svg">
<path d="M9.4375 10.9375C8.38281 10.9375 7.5625 11.8164 7.5625 12.8125C7.5625 13.8672 8.38281 14.6875 9.4375 14.6875C10.4336 14.6875 11.3125 13.8672 11.3125 12.8125C11.3125 11.8164 10.4336 10.9375 9.4375 10.9375ZM16 10.9375C14.9453 10.9375 14.125 11.8164 14.125 12.8125C14.125 13.8672 14.9453 14.6875 16 14.6875C16.9961 14.6875 17.875 13.8672 17.875 12.8125C17.875 11.8164 16.9961 10.9375 16 10.9375ZM22.5625 10.9375C21.5078 10.9375 20.6875 11.8164 20.6875 12.8125C20.6875 13.8672 21.5078 14.6875 22.5625 14.6875C23.5586 14.6875 24.4375 13.8672 24.4375 12.8125C24.4375 11.8164 23.5586 10.9375 22.5625 10.9375ZM16 0.625C7.67969 0.625 1 6.13281 1 12.8125C1 15.625 2.11328 18.2031 4.04688 20.2539C3.22656 22.5391 1.41016 24.5312 1.35156 24.5312C0.941406 24.9414 0.882812 25.5273 1.05859 26.0547C1.29297 26.582 1.82031 26.875 2.40625 26.875C5.98047 26.875 8.85156 25.4102 10.5508 24.1797C12.25 24.707 14.0664 25 16 25C24.2617 25 31 19.5508 31 12.8125C31 6.13281 24.2617 0.625 16 0.625ZM16 22.1875C14.418 22.1875 12.8359 21.9531 11.3711 21.4844L10.0234 21.0742L8.91016 21.8945C8.08984 22.4805 6.91797 23.125 5.51172 23.5938C5.98047 22.8906 6.39062 22.0703 6.68359 21.25L7.32812 19.6094L6.09766 18.3203C5.04297 17.207 3.8125 15.332 3.8125 12.8125C3.8125 7.65625 9.26172 3.4375 16 3.4375C22.6797 3.4375 28.1875 7.65625 28.1875 12.8125C28.1875 18.0273 22.6797 22.1875 16 22.1875Z" fill="#C0C0C0"/>
</svg>
