<svg width="27" height="23" viewBox="0 0 27 23" fill="none" xmlns="http://www.w3.org/2000/svg">
<path d="M10.7187 20.3394L10.7246 20.5334H10.9186H23.8305H24.0246L24.0304 20.3394C24.0871 18.4619 23.6077 17.0579 22.4877 16.1318C21.378 15.2143 19.6788 14.8 17.3746 14.8C15.0703 14.8 13.3711 15.2143 12.2615 16.1318C11.1415 17.0579 10.662 18.4619 10.7187 20.3394ZM17.3746 12.5334C20.6074 12.5334 22.9721 13.3603 24.4336 14.9106C25.8926 16.4582 26.4891 18.7669 26.0982 21.8162C26.0254 22.3843 25.5585 22.8 25.0161 22.8H9.73308C9.19068 22.8 8.72378 22.3843 8.65096 21.8162C8.26006 18.7669 8.85657 16.4582 10.3155 14.9106C11.777 13.3603 14.1418 12.5334 17.3746 12.5334Z" fill="black" stroke="white" stroke-width="0.4"/>
<path d="M17.3747 10.8C14.6376 10.8 12.408 8.50774 12.408 5.66665C12.408 2.82555 14.6376 0.533313 17.3747 0.533313C20.1118 0.533313 22.3413 2.82555 22.3413 5.66665C22.3413 8.50774 20.1118 10.8 17.3747 10.8ZM17.3747 8.53331C18.9178 8.53331 20.158 7.24383 20.158 5.66665C20.158 4.08946 18.9178 2.79998 17.3747 2.79998C15.8315 2.79998 14.5913 4.08946 14.5913 5.66665C14.5913 7.24383 15.8315 8.53331 17.3747 8.53331Z" fill="black" stroke="white" stroke-width="0.4"/>
<path d="M2.96989 16.3238L2.95984 16.5333H3.16966H5.74971C6.34668 16.5333 6.84138 17.0347 6.84138 17.6667C6.84138 18.2986 6.34668 18.8 5.74971 18.8H1.94705C1.40465 18.8 0.937748 18.3842 0.864926 17.8162C0.588206 15.6576 1.02827 14.0144 2.06395 12.9102C3.10191 11.8036 4.77374 11.2 7.04138 11.2C7.53489 11.2 7.99914 11.2269 8.43477 11.281C9.02833 11.3548 9.46202 11.9148 9.38881 12.5425C9.31573 13.1692 8.76761 13.6052 8.17535 13.5317C7.82731 13.4884 7.44908 13.4667 7.04138 13.4667C5.71936 13.4667 4.72376 13.664 4.0438 14.1306C3.34908 14.6074 3.017 15.341 2.96989 16.3238Z" fill="black" stroke="white" stroke-width="0.4"/>
<path d="M7.04199 9.46663C5.01828 9.46663 3.36699 7.77134 3.36699 5.66663C3.36699 3.56191 5.01828 1.86663 7.04199 1.86663C9.0657 1.86663 10.717 3.56191 10.717 5.66663C10.717 7.77134 9.0657 9.46663 7.04199 9.46663ZM7.04199 7.19996C7.87175 7.19996 8.53366 6.50743 8.53366 5.66663C8.53366 4.82582 7.87175 4.13329 7.04199 4.13329C6.21223 4.13329 5.55033 4.82582 5.55033 5.66663C5.55033 6.50743 6.21223 7.19996 7.04199 7.19996Z" fill="black" stroke="white" stroke-width="0.4"/>
</svg>
