<svg width="27" height="27" viewBox="0 0 27 27" fill="none" xmlns="http://www.w3.org/2000/svg">
<path d="M3.375 11.8125C2.90925 11.8125 2.53125 11.4345 2.53125 10.9688V4.21875C2.53125 3.753 2.90925 3.375 3.375 3.375C3.84075 3.375 4.21875 3.753 4.21875 4.21875V10.9688C4.21875 11.4345 3.84075 11.8125 3.375 11.8125Z" fill="#3E3E3E"/>
<path d="M4.21875 12.6562C3.28809 12.6562 2.53125 11.8994 2.53125 10.9688C2.53125 10.503 2.90925 10.125 3.375 10.125C3.84075 10.125 4.21875 10.503 4.21875 10.9688V10.97C4.6845 10.97 5.0625 11.3472 5.0625 11.8133C5.0625 12.2795 4.6845 12.6562 4.21875 12.6562Z" fill="#3E3E3E"/>
<path d="M10.9688 12.6562H4.21875C3.753 12.6562 3.375 12.2782 3.375 11.8125C3.375 11.3468 3.753 10.9688 4.21875 10.9688H10.9688C11.4345 10.9688 11.8125 11.3468 11.8125 11.8125C11.8125 12.2782 11.4345 12.6562 10.9688 12.6562Z" fill="#3E3E3E"/>
<path d="M10.9688 12.6562C10.503 12.6562 10.125 12.2782 10.125 11.8125C10.125 11.3468 10.503 10.9688 10.9688 10.9688H10.9696C10.9696 10.503 11.3467 10.125 11.8129 10.125C12.2791 10.125 12.6562 10.503 12.6562 10.9688C12.6562 11.8994 11.8994 12.6562 10.9688 12.6562Z" fill="#3E3E3E"/>
<path d="M11.8125 11.8125C11.3468 11.8125 10.9688 11.4345 10.9688 10.9688V4.21875C10.9688 3.753 11.3468 3.375 11.8125 3.375C12.2782 3.375 12.6562 3.753 12.6562 4.21875V10.9688C12.6562 11.4345 12.2782 11.8125 11.8125 11.8125Z" fill="#3E3E3E"/>
<path d="M10.9688 4.21875H4.21875C3.753 4.21875 3.375 3.84075 3.375 3.375C3.375 2.90925 3.753 2.53125 4.21875 2.53125H10.9688C11.4345 2.53125 11.8125 2.90925 11.8125 3.375C11.8125 3.84075 11.4345 4.21875 10.9688 4.21875Z" fill="#3E3E3E"/>
<path d="M11.8125 5.0625C11.3468 5.0625 10.9688 4.6845 10.9688 4.21875V4.21791C10.503 4.21791 10.125 3.84033 10.125 3.37458C10.125 2.90883 10.503 2.53125 10.9688 2.53125C11.8994 2.53125 12.6562 3.28809 12.6562 4.21875C12.6562 4.6845 12.2782 5.0625 11.8125 5.0625Z" fill="#3E3E3E"/>
<path d="M3.37458 5.0625C2.90841 5.0625 2.53125 4.6845 2.53125 4.21875C2.53125 3.28809 3.28809 2.53125 4.21875 2.53125C4.6845 2.53125 5.0625 2.90925 5.0625 3.375C5.0625 3.84075 4.6845 4.21875 4.21875 4.21875H4.21791C4.21791 4.6845 3.84033 5.0625 3.37458 5.0625Z" fill="#3E3E3E"/>
<path d="M3.375 23.625C2.90925 23.625 2.53125 23.247 2.53125 22.7812V16.0312C2.53125 15.5655 2.90925 15.1875 3.375 15.1875C3.84075 15.1875 4.21875 15.5655 4.21875 16.0312V22.7812C4.21875 23.247 3.84075 23.625 3.375 23.625Z" fill="#3E3E3E"/>
<path d="M3.37458 16.875C2.90841 16.875 2.53125 16.497 2.53125 16.0312C2.53125 15.1006 3.28809 14.3438 4.21875 14.3438C4.6845 14.3438 5.0625 14.7218 5.0625 15.1875C5.0625 15.6532 4.6845 16.0312 4.21875 16.0312H4.21791C4.21791 16.497 3.84033 16.875 3.37458 16.875Z" fill="#3E3E3E"/>
<path d="M10.9688 24H4.21875C3.753 24 3.375 21.837 3.375 19.1719C3.375 16.5068 3.753 14.3438 4.21875 14.3438H10.9688C11.4345 14.3438 11.8125 16.5068 11.8125 19.1719C11.8125 21.837 11.4345 24 10.9688 24Z" fill="#3E3E3E"/>
<path d="M11.8125 16.875C11.3468 16.875 10.9688 16.497 10.9688 16.0312V16.0304C10.503 16.0304 10.125 15.6528 10.125 15.1871C10.125 14.7213 10.503 14.3438 10.9688 14.3438C11.8994 14.3438 12.6562 15.1006 12.6562 16.0312C12.6562 16.497 12.2782 16.875 11.8125 16.875Z" fill="#3E3E3E"/>
<path d="M11.8125 23.625C11.3468 23.625 10.9688 23.247 10.9688 22.7812V16.0312C10.9688 15.5655 11.3468 15.1875 11.8125 15.1875C12.2782 15.1875 12.6562 15.5655 12.6562 16.0312V22.7812C12.6562 23.247 12.2782 23.625 11.8125 23.625Z" fill="#3E3E3E"/>
<path d="M10.9688 24.4688H4.21875C3.753 24.4688 3.375 24.0907 3.375 23.625C3.375 23.1593 3.753 22.7812 4.21875 22.7812H10.9688C11.4345 22.7812 11.8125 23.1593 11.8125 23.625C11.8125 24.0907 11.4345 24.4688 10.9688 24.4688Z" fill="#3E3E3E"/>
<path d="M10.9688 24.4688C10.503 24.4688 10.125 24.0907 10.125 23.625C10.125 23.1593 10.503 22.7812 10.9688 22.7812H10.9696C10.9696 22.3155 11.3467 21.9375 11.8129 21.9375C12.2791 21.9375 12.6562 22.3155 12.6562 22.7812C12.6562 23.7119 11.8994 24.4688 10.9688 24.4688Z" fill="#3E3E3E"/>
<path d="M4.21875 24.4688C3.28809 24.4688 2.53125 23.7119 2.53125 22.7812C2.53125 22.3155 2.90925 21.9375 3.375 21.9375C3.84075 21.9375 4.21875 22.3155 4.21875 22.7812V22.7825C4.6845 22.7825 5.0625 23.1597 5.0625 23.6258C5.0625 24.092 4.6845 24.4688 4.21875 24.4688Z" fill="#3E3E3E"/>
<path d="M23.625 11.8125C23.1593 11.8125 22.7812 11.4345 22.7812 10.9688V4.21875C22.7812 3.753 23.1593 3.375 23.625 3.375C24.0907 3.375 24.4688 3.753 24.4688 4.21875V10.9688C24.4688 11.4345 24.0907 11.8125 23.625 11.8125Z" fill="#3E3E3E"/>
<path d="M22.7812 12.6562C22.3155 12.6562 21.9375 12.2782 21.9375 11.8125C21.9375 11.3468 22.3155 10.9688 22.7812 10.9688H22.7821C22.7821 10.503 23.1592 10.125 23.6254 10.125C24.0916 10.125 24.4688 10.503 24.4688 10.9688C24.4688 11.8994 23.7119 12.6562 22.7812 12.6562Z" fill="#3E3E3E"/>
<path d="M22.7812 12.6562H16.0312C15.5655 12.6562 15.1875 12.2782 15.1875 11.8125C15.1875 11.3468 15.5655 10.9688 16.0312 10.9688H22.7812C23.247 10.9688 23.625 11.3468 23.625 11.8125C23.625 12.2782 23.247 12.6562 22.7812 12.6562Z" fill="#3E3E3E"/>
<path d="M16.0312 12.6562C15.1006 12.6562 14.3438 11.8994 14.3438 10.9688C14.3438 10.503 14.7218 10.125 15.1875 10.125C15.6532 10.125 16.0312 10.503 16.0312 10.9688V10.97C16.497 10.97 16.875 11.3472 16.875 11.8133C16.875 12.2795 16.497 12.6562 16.0312 12.6562Z" fill="#3E3E3E"/>
<path d="M15.1875 11.8125C14.7218 11.8125 14.3438 11.4345 14.3438 10.9688V4.21875C14.3438 3.753 14.7218 3.375 15.1875 3.375C15.6532 3.375 16.0312 3.753 16.0312 4.21875V10.9688C16.0312 11.4345 15.6532 11.8125 15.1875 11.8125Z" fill="#3E3E3E"/>
<path d="M22.7812 12H16.0312C15.5655 12 15.1875 9.879 15.1875 7.26562C15.1875 4.65225 15.5655 2.53125 16.0312 2.53125H22.7812C23.247 2.53125 23.625 4.65225 23.625 7.26562C23.625 9.879 23.247 12 22.7812 12Z" fill="#3E3E3E"/>
<path d="M15.1871 5.0625C14.7209 5.0625 14.3438 4.6845 14.3438 4.21875C14.3438 3.28809 15.1006 2.53125 16.0312 2.53125C16.497 2.53125 16.875 2.90925 16.875 3.375C16.875 3.84075 16.497 4.21875 16.0312 4.21875H16.0304C16.0304 4.6845 15.6528 5.0625 15.1871 5.0625Z" fill="#3E3E3E"/>
<path d="M23.625 5.0625C23.1593 5.0625 22.7812 4.6845 22.7812 4.21875V4.21791C22.3155 4.21791 21.9375 3.84033 21.9375 3.37458C21.9375 2.90883 22.3155 2.53125 22.7812 2.53125C23.7119 2.53125 24.4688 3.28809 24.4688 4.21875C24.4688 4.6845 24.0907 5.0625 23.625 5.0625Z" fill="#3E3E3E"/>
<path d="M23.625 23.625C23.1593 23.625 22.7812 23.247 22.7812 22.7812V16.0312C22.7812 15.5655 23.1593 15.1875 23.625 15.1875C24.0907 15.1875 24.4688 15.5655 24.4688 16.0312V22.7812C24.4688 23.247 24.0907 23.625 23.625 23.625Z" fill="#3E3E3E"/>
<path d="M23.625 16.875C23.1593 16.875 22.7812 16.497 22.7812 16.0312V16.0304C22.3155 16.0304 21.9375 15.6528 21.9375 15.1871C21.9375 14.7213 22.3155 14.3438 22.7812 14.3438C23.7119 14.3438 24.4688 15.1006 24.4688 16.0312C24.4688 16.497 24.0907 16.875 23.625 16.875Z" fill="#3E3E3E"/>
<path d="M22.7812 16.0312H16.0312C15.5655 16.0312 15.1875 15.6532 15.1875 15.1875C15.1875 14.7218 15.5655 14.3438 16.0312 14.3438H22.7812C23.247 14.3438 23.625 14.7218 23.625 15.1875C23.625 15.6532 23.247 16.0312 22.7812 16.0312Z" fill="#3E3E3E"/>
<path d="M15.1871 16.875C14.7209 16.875 14.3438 16.497 14.3438 16.0312C14.3438 15.1006 15.1006 14.3438 16.0312 14.3438C16.497 14.3438 16.875 14.7218 16.875 15.1875C16.875 15.6532 16.497 16.0312 16.0312 16.0312H16.0304C16.0304 16.497 15.6528 16.875 15.1871 16.875Z" fill="#3E3E3E"/>
<path d="M15.1875 23.625C14.7218 23.625 14.3438 23.247 14.3438 22.7812V16.0312C14.3438 15.5655 14.7218 15.1875 15.1875 15.1875C15.6532 15.1875 16.0312 15.5655 16.0312 16.0312V22.7812C16.0312 23.247 15.6532 23.625 15.1875 23.625Z" fill="#3E3E3E"/>
<path d="M22.7812 24.4688H16.0312C15.5655 24.4688 15.1875 24.0907 15.1875 23.625C15.1875 23.1593 15.5655 22.7812 16.0312 22.7812H22.7812C23.247 22.7812 23.625 23.1593 23.625 23.625C23.625 24.0907 23.247 24.4688 22.7812 24.4688Z" fill="#3E3E3E"/>
<path d="M16.0312 24.4688C15.1006 24.4688 14.3438 23.7119 14.3438 22.7812C14.3438 22.3155 14.7218 21.9375 15.1875 21.9375C15.6532 21.9375 16.0312 22.3155 16.0312 22.7812V22.7825C16.497 22.7825 16.875 23.1597 16.875 23.6258C16.875 24.092 16.497 24.4688 16.0312 24.4688Z" fill="#3E3E3E"/>
<path d="M22.7812 24.4688C22.3155 24.4688 21.9375 24.0907 21.9375 23.625C21.9375 23.1593 22.3155 22.7812 22.7812 22.7812H22.7821C22.7821 22.3155 23.1592 21.9375 23.6254 21.9375C24.0916 21.9375 24.4688 22.3155 24.4688 22.7812C24.4688 23.7119 23.7119 24.4688 22.7812 24.4688Z" fill="#3E3E3E"/>
</svg>
