<svg width="23" height="21" viewBox="0 0 23 21" fill="none" xmlns="http://www.w3.org/2000/svg">
<path d="M22.8868 5.71316L19.2781 0.300078C19.1531 0.112619 18.9427 0 18.7174 0H4.28253C4.05724 0 3.84683 0.112574 3.72186 0.300078L0.113147 5.71316C-0.0246731 5.91994 -0.0375207 6.18579 0.0797254 6.40487C0.0993562 6.44157 0.122401 6.47576 0.147872 6.50761L0.147692 6.50788L10.9739 20.0406C11.1018 20.2004 11.2953 20.2935 11.5 20.2935C11.7047 20.2935 11.8983 20.2004 12.0262 20.0406L22.8524 6.50788L22.8522 6.50761C22.8777 6.47576 22.9007 6.44162 22.9203 6.40487C23.0375 6.18579 23.0246 5.91989 22.8868 5.71316ZM14.2316 6.76074L11.4999 17.0045L8.76829 6.76074H14.2316ZM9.15026 5.41309L11.4999 1.88861L13.8496 5.41313H9.15026V5.41309ZM15.1087 4.87214L12.759 1.34766H17.4583L15.1087 4.87214ZM7.89124 4.87214L5.5416 1.34766H10.2409L7.89124 4.87214ZM7.37351 6.76074L10.0224 16.694L2.07574 6.76074H7.37351ZM15.6264 6.76074H20.9241L12.9775 16.694L15.6264 6.76074ZM21.067 5.41309H16.3677L18.7174 1.88856L21.067 5.41309ZM4.28253 1.88861L6.63216 5.41313H1.93284L4.28253 1.88861Z" fill="#3E3E3E"/>
</svg>
