<svg width="30" height="28" viewBox="0 0 30 28" fill="none" xmlns="http://www.w3.org/2000/svg">
<path d="M20.906 2.00043H24.4349C25.1829 1.98842 25.9098 2.22619 26.4774 2.6686C27.0451 3.11102 27.4141 3.72727 27.5144 4.40039V12.8002C27.4141 13.4734 27.0451 14.0896 26.4774 14.532C25.9098 14.9744 25.1829 15.2122 24.4349 15.2002H20.906M11.6541 17.6002V22.4001C11.6541 23.3548 12.0719 24.2705 12.8155 24.9456C13.559 25.6207 14.5676 26 15.6192 26L20.906 15.2002V2.00043H5.99726C5.35977 1.99389 4.74115 2.19674 4.25539 2.57162C3.76963 2.94649 3.44946 3.46812 3.35387 4.0404L1.52993 14.8402C1.47243 15.1842 1.49798 15.5354 1.60482 15.8695C1.71166 16.2036 1.89723 16.5126 2.14867 16.7751C2.40012 17.0377 2.71142 17.2474 3.06102 17.3899C3.41062 17.5323 3.79015 17.6041 4.17332 17.6002H11.6541Z" stroke="#C0C0C0" stroke-width="3" stroke-linecap="round" stroke-linejoin="round"/>
</svg>
