<svg width="19" height="19" viewBox="0 0 19 19" fill="none" xmlns="http://www.w3.org/2000/svg">
<g clip-path="url(#clip0_622_180)">
<path d="M8.67031 13.2668C8.77555 13.3719 8.91819 13.4311 9.06706 13.4311C9.21578 13.4311 9.35842 13.3721 9.46366 13.2668L11.4666 11.2639C11.6857 11.0448 11.6857 10.6896 11.4666 10.4704C11.2475 10.2514 10.8922 10.2514 10.6732 10.4704L9.06706 12.0766L8.33473 11.3442C8.11555 11.1252 7.7604 11.1252 7.54123 11.3442C7.3222 11.5633 7.3222 11.9186 7.54123 12.1377L8.67031 13.2668Z" fill="black"/>
<path d="M9.50448 16.3223C11.9602 16.3223 13.958 14.3243 13.958 11.8686C13.958 9.41286 11.9602 7.41504 9.50448 7.41504C7.0486 7.41504 5.05078 9.41286 5.05078 11.8686C5.05078 14.3243 7.04874 16.3223 9.50448 16.3223ZM9.50448 8.53702C11.3415 8.53702 12.8361 10.0315 12.8361 11.8686C12.8361 13.7057 11.3415 15.2003 9.50448 15.2003C7.66742 15.2003 6.17276 13.7057 6.17276 11.8686C6.17276 10.0315 7.66742 8.53702 9.50448 8.53702Z" fill="black"/>
<path d="M16.9717 1.1946H15.9485V0.560989C15.9485 0.251213 15.6973 0 15.3875 0C15.0777 0 14.8265 0.251213 14.8265 0.560989V1.1946H13.7241V0.560989C13.7241 0.251213 13.4729 0 13.163 0C12.8532 0 12.602 0.251213 12.602 0.560989V1.1946H6.40702V0.560989C6.40702 0.251213 6.15581 0 5.84589 0C5.53611 0 5.2849 0.251213 5.2849 0.560989V1.1946H4.18249V0.560989C4.18249 0.251213 3.93127 0 3.62135 0C3.31158 0 3.06036 0.251213 3.06036 0.560989V1.1946H2.03696C1.0366 1.1946 0.222656 2.00854 0.222656 3.00905V17.1857C0.222656 18.1861 1.0366 19 2.03696 19H16.9717C17.9722 19 18.786 18.1861 18.786 17.1857V3.00905C18.786 2.00854 17.9721 1.1946 16.9717 1.1946ZM17.6639 17.1857C17.6639 17.5674 17.3534 17.878 16.9717 17.878H2.03696C1.65528 17.878 1.34464 17.5674 1.34464 17.1857V5.85951H17.6639V17.1857ZM1.34464 3.00905C1.34464 2.62723 1.65528 2.31673 2.03696 2.31673H3.06036V2.95034C3.06036 3.26012 3.31158 3.51133 3.6215 3.51133C3.93127 3.51133 4.18249 3.26012 4.18249 2.95034V2.31673H5.2849V2.95034C5.2849 3.26012 5.53611 3.51133 5.84603 3.51133C6.15581 3.51133 6.40702 3.26012 6.40702 2.95034V2.31673H12.602V2.95034C12.602 3.26012 12.8532 3.51133 13.1631 3.51133C13.4729 3.51133 13.7241 3.26012 13.7241 2.95034V2.31673H14.8265V2.95034C14.8265 3.26012 15.0777 3.51133 15.3875 3.51133C15.6974 3.51133 15.9486 3.26012 15.9486 2.95034V2.31673H16.9717C17.3534 2.31673 17.6641 2.62723 17.6641 3.00905V4.73739H1.34464V3.00905Z" fill="black"/>
</g>
<defs>
<clipPath id="clip0_622_180">
<rect width="19" height="19" fill="white"/>
</clipPath>
</defs>
</svg>
