<svg width="20" height="19" viewBox="0 0 20 19" fill="none" xmlns="http://www.w3.org/2000/svg">
<path d="M17 1H3C1.89543 1 1 1.81297 1 2.81582V15.5266C1 16.5294 1.89543 17.3424 3 17.3424H17C18.1046 17.3424 19 16.5294 19 15.5266V2.81582C19 1.81297 18.1046 1 17 1Z" stroke="#E8922D" stroke-width="2" stroke-linecap="round" stroke-linejoin="round"/>
<path d="M6.5 7.35538C7.32843 7.35538 8 6.74565 8 5.99352C8 5.24138 7.32843 4.63165 6.5 4.63165C5.67157 4.63165 5 5.24138 5 5.99352C5 6.74565 5.67157 7.35538 6.5 7.35538Z" stroke="#E8922D" stroke-width="2" stroke-linecap="round" stroke-linejoin="round"/>
<path d="M19 11.8949L14 7.35538L3 17.3424" stroke="#E8922D" stroke-width="2" stroke-linecap="round" stroke-linejoin="round"/>
</svg>
