<svg width="30" height="28" viewBox="0 0 30 28" fill="none" xmlns="http://www.w3.org/2000/svg">
<path d="M21.406 25.9996H24.9349C25.6829 26.0116 26.4098 25.7738 26.9774 25.3314C27.5451 24.889 27.9141 24.2727 28.0144 23.5996V15.1998C27.9141 14.5266 27.5451 13.9104 26.9774 13.468C26.4098 13.0256 25.6829 12.7878 24.9349 12.7998H21.406M12.1541 10.3998V5.59994C12.1541 4.64517 12.5719 3.72952 13.3155 3.0544C14.059 2.37928 15.0676 2 16.1192 2L21.406 12.7998V25.9996H6.49726C5.85977 26.0061 5.24115 25.8033 4.75539 25.4284C4.26963 25.0535 3.94946 24.5319 3.85387 23.9596L2.02993 13.1598C1.97243 12.8158 1.99798 12.4646 2.10482 12.1305C2.21166 11.7964 2.39723 11.4874 2.64867 11.2249C2.90012 10.9623 3.21142 10.7526 3.56102 10.6101C3.91062 10.4677 4.29015 10.3959 4.67332 10.3998H12.1541Z" stroke="#C0C0C0" stroke-width="3" stroke-linecap="round" stroke-linejoin="round"/>
</svg>
