<svg width="16" height="16" viewBox="0 0 16 16" fill="none" xmlns="http://www.w3.org/2000/svg">
<path d="M15.5674 15.5677V9.86606C15.5674 7.06389 14.9642 4.92334 11.695 4.92334C10.1187 4.92334 9.06793 5.77956 8.63982 6.59686H8.6009V5.17631H5.50684V15.5677H8.73712V10.4109C8.73712 9.04876 8.99009 7.74497 10.6636 7.74497C12.3177 7.74497 12.3371 9.28228 12.3371 10.4888V15.5482H15.5674V15.5677Z" fill="black"/>
<path d="M0.25293 5.17627H3.48321V15.5677H0.25293V5.17627Z" fill="black"/>
<path d="M1.86812 0C0.83676 0 0 0.83676 0 1.86811C0 2.89947 0.83676 3.75569 1.86812 3.75569C2.89947 3.75569 3.73623 2.89947 3.73623 1.86811C3.73623 0.83676 2.89947 0 1.86812 0Z" fill="black"/>
</svg>
