<svg width="19" height="19" viewBox="0 0 19 19" fill="none" xmlns="http://www.w3.org/2000/svg">
<path d="M18.2692 10.2307C18.0821 10.2307 17.8954 10.1595 17.7525 10.0166L12.8432 5.10768C12.5579 4.82232 12.5579 4.35974 12.8432 4.07438C13.1286 3.78901 13.5912 3.78901 13.8765 4.07438L18.7859 8.98332C19.0712 9.26868 19.0712 9.73126 18.7859 10.0166C18.643 10.1591 18.4563 10.2307 18.2692 10.2307Z" fill="#3E3E3E"/>
<path d="M13.3599 15.1399C13.1728 15.1399 12.9861 15.0687 12.8432 14.9258C12.5579 14.6404 12.5579 14.1779 12.8432 13.8925L17.7525 8.98356C18.0379 8.69819 18.5005 8.69819 18.7859 8.98356C19.0712 9.26892 19.0712 9.7315 18.7859 10.0169L13.8769 14.9258C13.734 15.0683 13.547 15.1399 13.3599 15.1399Z" fill="#3E3E3E"/>
<path d="M18.2692 10.2306H4.38458C3.98119 10.2306 3.65381 9.9032 3.65381 9.49981C3.65381 9.09643 3.98119 8.76904 4.38458 8.76904H18.2692C18.6726 8.76904 19 9.09643 19 9.49981C19 9.9032 18.6726 10.2306 18.2692 10.2306Z" fill="#3E3E3E"/>
<path d="M1.46154 18.9999C0.6555 18.9999 0 18.3444 0 17.5384C0 17.135 0.327385 16.8076 0.730769 16.8076C1.13415 16.8076 1.46154 17.135 1.46154 17.5384V17.5395C1.86492 17.5395 2.19231 17.8661 2.19231 18.2699C2.19231 18.6736 1.86492 18.9999 1.46154 18.9999Z" fill="#3E3E3E"/>
<path d="M6.57699 19.0001H1.4616C1.05822 19.0001 0.730835 18.6727 0.730835 18.2693C0.730835 17.866 1.05822 17.5386 1.4616 17.5386H6.57699C6.98037 17.5386 7.30776 17.866 7.30776 18.2693C7.30776 18.6727 6.98037 19.0001 6.57699 19.0001Z" fill="#3E3E3E"/>
<path d="M0.730769 18.2694C0.327385 18.2694 0 17.942 0 17.5386V1.46173C0 1.05834 0.327385 0.730957 0.730769 0.730957C1.13415 0.730957 1.46154 1.05834 1.46154 1.46173V17.5386C1.46154 17.942 1.13415 18.2694 0.730769 18.2694Z" fill="#3E3E3E"/>
<path d="M0.730404 2.19231C0.326654 2.19231 0 1.86492 0 1.46154C0 0.6555 0.6555 0 1.46154 0C1.86492 0 2.19231 0.327385 2.19231 0.730769C2.19231 1.13415 1.86492 1.46154 1.46154 1.46154H1.46044C1.46044 1.86492 1.13415 2.19231 0.730404 2.19231Z" fill="#3E3E3E"/>
<path d="M6.57699 1.46154H1.4616C1.05822 1.46154 0.730835 1.13415 0.730835 0.730769C0.730835 0.327385 1.05822 0 1.4616 0H6.57699C6.98037 0 7.30776 0.327385 7.30776 0.730769C7.30776 1.13415 6.98037 1.46154 6.57699 1.46154Z" fill="#3E3E3E"/>
</svg>
