<svg width="12" height="12" viewBox="0 0 12 12" fill="none" xmlns="http://www.w3.org/2000/svg">
<path d="M5.62183 6.04007C7.1003 6.04007 8.29883 4.87968 8.29883 3.44826C8.29883 2.01684 7.1003 0.856445 5.62183 0.856445C4.14336 0.856445 2.94482 2.01684 2.94482 3.44826C2.94482 4.87968 4.14336 6.04007 5.62183 6.04007Z" fill="#3E3E3E"/>
<path d="M6.18926 6.55859H5.05421C4.38838 6.56063 3.72948 6.68963 3.11513 6.93821C2.50079 7.18679 1.94303 7.55009 1.4737 8.00737C1.00438 8.46465 0.632676 9.00695 0.379822 9.60331C0.126968 10.1997 -0.00208712 10.8384 2.55242e-05 11.4831C2.55242e-05 11.5518 0.0282297 11.6177 0.0784333 11.6663C0.128637 11.7149 0.196727 11.7422 0.267726 11.7422H10.9757C11.0501 11.7357 11.119 11.7021 11.1687 11.6482C11.2184 11.5943 11.2451 11.5242 11.2434 11.4519C11.2406 10.155 10.7072 8.91194 9.75999 7.99485C8.81276 7.07776 7.52885 6.56133 6.18926 6.55859Z" fill="#3E3E3E"/>
</svg>
