<svg width="25" height="25" viewBox="0 0 25 25" fill="none" xmlns="http://www.w3.org/2000/svg">
<path d="M16.9116 1.46948C15.8864 1.46948 15.0223 2.17261 14.7761 3.12192L6.49828 5.88119H2.20586C0.989549 5.88124 0 6.87079 0 8.0871V12.4988C0 13.7151 0.989549 14.7047 2.20586 14.7047H2.23486L2.98911 21.7573C3.09277 22.7226 4.27909 23.8152 5.68207 23.4624C6.84169 23.1727 7.55721 22.0081 7.30131 20.8474L7.1412 19.114C7.15658 19.115 7.17186 19.1164 7.18744 19.1164H8.08812C9.30443 19.1164 10.294 18.1268 10.294 16.9105V15.9699L14.776 17.4639C15.0222 18.4133 15.8863 19.1164 16.9116 19.1164C18.1279 19.1164 19.1174 18.1268 19.1174 16.9105V3.67539C19.1175 2.45903 18.1279 1.46948 16.9116 1.46948ZM5.32455 22.036C4.94872 22.1305 4.56156 21.915 4.44501 21.5415L3.71386 14.7047H5.25722C5.88241 21.4746 5.84032 21.0628 5.86039 21.1435C5.95868 21.5373 5.71884 21.9375 5.32455 22.036ZM5.88231 13.2341C5.23022 13.2341 2.67456 13.2341 2.20586 13.2341C1.80044 13.2341 1.47055 12.9043 1.47055 12.4988V8.0871C1.47055 7.68168 1.80039 7.35179 2.20586 7.35179H5.88231V13.2341ZM8.82347 16.9106C8.82347 17.316 8.49364 17.6459 8.08817 17.6459H7.18749C7.12538 17.6459 7.06537 17.6544 7.0078 17.6689L6.74154 14.7858L8.82347 15.4798V16.9106ZM14.7058 15.8904L7.35292 13.4394V7.14647L14.7058 4.6955V15.8904ZM17.6469 16.9106C17.6469 17.316 17.3171 17.6459 16.9116 17.6459C16.5062 17.6459 16.1763 17.316 16.1763 16.9106V3.67539C16.1763 3.26997 16.5062 2.94008 16.9116 2.94008C17.3171 2.94008 17.6469 3.26992 17.6469 3.67539V16.9106Z" fill="black"/>
<path d="M24.2643 8.82251H21.3232C20.9171 8.82251 20.5879 9.15171 20.5879 9.55781C20.5879 9.96386 20.9171 10.2931 21.3232 10.2931H24.2643C24.6704 10.2931 24.9996 9.96391 24.9996 9.55781C24.9996 9.15171 24.6704 8.82251 24.2643 8.82251Z" fill="black"/>
<path d="M24.9222 4.81726C24.7406 4.45403 24.2988 4.30681 23.9357 4.48845L20.9945 5.95901C20.6313 6.14065 20.4841 6.5823 20.6657 6.94553C20.8474 7.30895 21.2892 7.45593 21.6522 7.27434L24.5934 5.80378C24.9566 5.62214 25.1038 5.18049 24.9222 4.81726Z" fill="black"/>
<path d="M24.5933 13.312L21.6522 11.8415C21.289 11.6598 20.8473 11.8071 20.6657 12.1703C20.4841 12.5335 20.6313 12.9751 20.9945 13.1568L23.9356 14.6274C24.2989 14.8091 24.7406 14.6617 24.9222 14.2986C25.1037 13.9353 24.9566 13.4937 24.5933 13.312Z" fill="black"/>
</svg>
