<svg width="60" height="60" viewBox="0 0 60 60" fill="none" xmlns="http://www.w3.org/2000/svg">
<circle cx="30" cy="30" r="30" fill="#EDF2F6"/>
<path d="M30.2578 37.99H39.5157" stroke="#3E3E3E" stroke-width="1.5" stroke-linecap="round" stroke-linejoin="round"/>
<path d="M34.8868 22.5803C35.296 22.2087 35.851 22 36.4298 22C36.7163 22 37.0001 22.0512 37.2648 22.1508C37.5296 22.2504 37.7701 22.3963 37.9727 22.5803C38.1754 22.7642 38.3361 22.9826 38.4458 23.223C38.5554 23.4634 38.6119 23.721 38.6119 23.9812C38.6119 24.2413 38.5554 24.4989 38.4458 24.7393C38.3361 24.9797 38.1754 25.1981 37.9727 25.382L25.1146 37.0561L21 37.99L22.0287 34.2543L34.8868 22.5803Z" stroke="#3E3E3E" stroke-width="1.5" stroke-linecap="round" stroke-linejoin="round"/>
</svg>
