<svg width="22" height="22" viewBox="0 0 22 22" fill="none" xmlns="http://www.w3.org/2000/svg">
<path opacity="0.3" d="M12.7396 14.8911C12.3915 14.543 12.3915 13.9787 12.7396 13.6306C13.0876 13.2825 13.652 13.2825 14.0001 13.6306L17.5653 17.1958C17.9134 17.5439 17.9134 18.1083 17.5653 18.4563C17.2172 18.8044 16.6529 18.8044 16.3048 18.4563L12.7396 14.8911Z" fill="#262628"/>
<path fill-rule="evenodd" clip-rule="evenodd" d="M3.56543 9.80438C3.56543 13.2502 6.35878 16.0435 9.80456 16.0435C13.2503 16.0435 16.0437 13.2502 16.0437 9.80438C16.0437 6.3586 13.2503 3.56525 9.80456 3.56525C6.35878 3.56525 3.56543 6.3586 3.56543 9.80438ZM14.2611 9.80438C14.2611 12.2656 12.2658 14.2609 9.80456 14.2609C7.34329 14.2609 5.34804 12.2656 5.34804 9.80438C5.34804 7.34311 7.34329 5.34786 9.80456 5.34786C12.2658 5.34786 14.2611 7.34311 14.2611 9.80438Z" fill="#262628"/>
</svg>
