<svg width="26" height="26" viewBox="0 0 26 26" fill="none" xmlns="http://www.w3.org/2000/svg">
<path d="M22.8386 9.28125H22.7306C22.5723 9.27985 22.4181 9.23081 22.2881 9.14051C22.1581 9.05021 22.0582 8.92284 22.0016 8.775C21.942 8.63224 21.9263 8.47498 21.9563 8.32322C21.9864 8.17147 22.0609 8.03209 22.1704 7.92281L22.2472 7.84603C22.71 7.38142 22.9699 6.75233 22.9699 6.09652C22.9699 5.4407 22.71 4.81161 22.2472 4.347L20.9722 3.07294C20.508 2.60974 19.879 2.3496 19.2232 2.3496C18.5673 2.3496 17.9383 2.60974 17.4741 3.07294L17.3973 3.14972C17.2842 3.25866 17.1417 3.33221 16.9874 3.36134C16.833 3.39047 16.6736 3.37391 16.5285 3.31371C16.3835 3.2535 16.2592 3.15226 16.1708 3.02241C16.0825 2.89256 16.034 2.73974 16.0312 2.58272V2.47388C16.0306 1.81797 15.7697 1.18912 15.3059 0.725321C14.8421 0.261525 14.2133 0.000670091 13.5574 0H11.7551C11.0992 0.000670091 10.4704 0.261525 10.0066 0.725321C9.54278 1.18912 9.28192 1.81797 9.28125 2.47388V2.58272C9.27714 2.73862 9.22792 2.88998 9.13956 3.01849C9.05119 3.14699 8.92747 3.24712 8.78337 3.30676C8.63928 3.3664 8.48098 3.38299 8.32764 3.35452C8.17431 3.32605 8.03252 3.25374 7.91944 3.14634L7.84688 3.06956C7.38262 2.60636 6.75359 2.34623 6.09778 2.34623C5.44197 2.34623 4.81294 2.60636 4.34869 3.06956L3.06956 4.34362C2.60672 4.80824 2.34685 5.43733 2.34685 6.09314C2.34685 6.74895 2.60672 7.37804 3.06956 7.84266L3.14634 7.91944C3.25692 8.03257 3.33093 8.17633 3.35877 8.33206C3.3866 8.48779 3.36698 8.64829 3.30244 8.79272C3.24454 8.93658 3.14505 9.0599 3.0167 9.14693C2.88834 9.23395 2.73695 9.28072 2.58187 9.28125H2.47388C1.81797 9.28192 1.18912 9.54278 0.725321 10.0066C0.261525 10.4704 0.000670091 11.0992 0 11.7551V13.5574C0.000670091 14.2133 0.261525 14.8421 0.725321 15.3059C1.18912 15.7697 1.81797 16.0306 2.47388 16.0312H2.58187C2.74018 16.0326 2.89439 16.0817 3.02442 16.172C3.15445 16.2623 3.25427 16.3897 3.31087 16.5375C3.37047 16.6803 3.38625 16.8375 3.3562 16.9893C3.32615 17.141 3.25163 17.2804 3.14212 17.3897L3.06534 17.4665C2.6025 17.9311 2.34263 18.5602 2.34263 19.216C2.34263 19.8718 2.6025 20.5009 3.06534 20.9655L4.33941 22.2387C4.80359 22.7024 5.43284 22.9628 6.08892 22.9628C6.74501 22.9628 7.37426 22.7024 7.83844 22.2387L7.91522 22.1619C8.02841 22.0515 8.17217 21.9775 8.32787 21.9497C8.48357 21.9219 8.64404 21.9414 8.7885 22.0058C8.93236 22.0635 9.05572 22.1628 9.14276 22.291C9.2298 22.4193 9.27656 22.5706 9.27703 22.7256V22.8344C9.27681 23.1599 9.34076 23.4822 9.46521 23.783C9.58967 24.0837 9.7722 24.357 10.0024 24.5872C10.2325 24.8173 10.5058 24.9999 10.8065 25.1243C11.1073 25.2488 11.4296 25.3127 11.7551 25.3125H13.5574C14.2133 25.3118 14.8421 25.051 15.3059 24.5872C15.7697 24.1234 16.0306 23.4945 16.0312 22.8386V22.7298C16.0354 22.5739 16.0846 22.4225 16.1729 22.294C16.2613 22.1655 16.385 22.0654 16.5291 22.0057C16.6732 21.9461 16.8315 21.9295 16.9849 21.958C17.1382 21.9865 17.28 22.0588 17.3931 22.1662L17.4698 22.2429C17.9341 22.7061 18.5631 22.9663 19.2189 22.9663C19.8747 22.9663 20.5038 22.7061 20.968 22.2429L22.2429 20.9697C22.7058 20.5051 22.9657 19.876 22.9657 19.2202C22.9657 18.5644 22.7058 17.9353 22.2429 17.4707L22.1662 17.3939C22.0556 17.2808 21.9816 17.137 21.9537 16.9813C21.9259 16.8256 21.9455 16.6651 22.0101 16.5206C22.0678 16.3766 22.1673 16.2531 22.2956 16.1659C22.424 16.0787 22.5755 16.0319 22.7306 16.0312H22.8386C23.4945 16.0306 24.1234 15.7697 24.5872 15.3059C25.051 14.8421 25.3118 14.2133 25.3125 13.5574V11.7551C25.3118 11.0992 25.051 10.4704 24.5872 10.0066C24.1234 9.54278 23.4945 9.28192 22.8386 9.28125ZM23.625 13.5574C23.6248 13.7659 23.5419 13.9658 23.3944 14.1132C23.247 14.2606 23.0471 14.3435 22.8386 14.3438H22.7306C22.241 14.3479 21.7634 14.4961 21.3574 14.7699C20.9515 15.0436 20.635 15.4308 20.4476 15.8832C20.2602 16.3356 20.2101 16.8331 20.3036 17.3137C20.397 17.7944 20.6299 18.2369 20.9731 18.5861L21.049 18.6629C21.1963 18.8106 21.2791 19.0107 21.2791 19.2194C21.2791 19.428 21.1963 19.6281 21.049 19.7758L19.7741 21.049C19.6267 21.1965 19.4266 21.2793 19.2181 21.2793C19.0095 21.2793 18.8095 21.1965 18.6621 21.049L18.5861 20.9722C18.2368 20.6294 17.7943 20.3969 17.3138 20.3037C16.8332 20.2105 16.3359 20.2607 15.8837 20.448C15.4315 20.6353 15.0444 20.9516 14.7706 21.3573C14.4967 21.763 14.3483 22.2403 14.3438 22.7298V22.8386C14.3435 23.0471 14.2606 23.247 14.1132 23.3944C13.9658 23.5419 13.7659 23.6248 13.5574 23.625H11.7551C11.5466 23.6248 11.3467 23.5419 11.1993 23.3944C11.0519 23.247 10.969 23.0471 10.9688 22.8386V22.7298C10.9664 22.2393 10.8192 21.7605 10.5457 21.3534C10.2722 20.9463 9.8846 20.629 9.43146 20.4413C8.97832 20.2537 8.47985 20.2041 7.99861 20.2987C7.51736 20.3933 7.07477 20.6279 6.72638 20.9731L6.64959 21.0499C6.5019 21.1969 6.30198 21.2795 6.09356 21.2795C5.88515 21.2795 5.68522 21.1969 5.53753 21.0499L4.26347 19.7767C4.11616 19.6289 4.03344 19.4288 4.03344 19.2202C4.03344 19.0116 4.11616 18.8115 4.26347 18.6638L4.34025 18.587C4.68382 18.2377 4.91694 17.7951 5.01051 17.3142C5.10409 16.8333 5.05398 16.3356 4.86643 15.883C4.67889 15.4304 4.36222 15.0431 3.95593 14.7694C3.54965 14.4956 3.07175 14.3476 2.58187 14.3438H2.47388C2.26538 14.3435 2.0655 14.2606 1.91807 14.1132C1.77065 13.9658 1.68772 13.7659 1.6875 13.5574V11.7551C1.68772 11.5466 1.77065 11.3467 1.91807 11.1993C2.0655 11.0519 2.26538 10.969 2.47388 10.9688H2.58187C3.07151 10.9646 3.54909 10.8164 3.95507 10.5426C4.36104 10.2689 4.67746 9.88168 4.86487 9.42931C5.05228 8.97694 5.10238 8.47941 5.00894 7.99876C4.9155 7.5181 4.68264 7.07558 4.33941 6.72638L4.26347 6.64959C4.11621 6.50201 4.03351 6.30204 4.03351 6.09356C4.03351 5.88508 4.11621 5.68511 4.26347 5.53753L5.53753 4.26263C5.685 4.11516 5.88501 4.03232 6.09356 4.03232C6.30211 4.03232 6.50212 4.11516 6.64959 4.26263L6.72553 4.33941C7.0748 4.68248 7.51728 4.91522 7.99787 5.00862C8.47846 5.10203 8.9759 5.05198 9.42825 4.86471C9.8806 4.67744 10.2679 4.36123 10.5418 3.95545C10.8157 3.54968 10.9642 3.07228 10.9688 2.58272V2.47388C10.969 2.26538 11.0519 2.0655 11.1993 1.91807C11.3467 1.77065 11.5466 1.68772 11.7551 1.6875H13.5574C13.7659 1.68772 13.9658 1.77065 14.1132 1.91807C14.2606 2.0655 14.3435 2.26538 14.3438 2.47388V2.58272C14.3481 3.07228 14.4964 3.54974 14.7702 3.9556C15.044 4.36145 15.4312 4.67773 15.8836 4.86504C16.3359 5.05234 16.8334 5.10238 17.3139 5.00891C17.7945 4.91544 18.237 4.6826 18.5861 4.33941L18.6629 4.26263C18.8104 4.11516 19.0104 4.03232 19.2189 4.03232C19.4275 4.03232 19.6275 4.11516 19.775 4.26263L21.049 5.53753C21.1963 5.68511 21.279 5.88508 21.279 6.09356C21.279 6.30204 21.1963 6.50201 21.049 6.64959L20.9722 6.72638C20.629 7.07564 20.3961 7.51823 20.3027 7.99896C20.2093 8.47969 20.2594 8.97729 20.447 9.42969C20.6345 9.88209 20.951 10.2693 21.3571 10.543C21.7632 10.8167 22.2409 10.9647 22.7306 10.9688H22.8386C23.0471 10.969 23.247 11.0519 23.3944 11.1993C23.5419 11.3467 23.6248 11.5466 23.625 11.7551V13.5574Z" fill="#3E3E3E"/>
<path d="M12.6562 6.75C11.4881 6.75 10.3462 7.0964 9.37491 7.74538C8.40364 8.39437 7.64662 9.3168 7.19959 10.396C6.75256 11.4753 6.6356 12.6628 6.86349 13.8085C7.09138 14.9542 7.6539 16.0066 8.4799 16.8326C9.30591 17.6586 10.3583 18.2211 11.504 18.449C12.6497 18.6769 13.8372 18.5599 14.9165 18.1129C15.9957 17.6659 16.9181 16.9089 17.5671 15.9376C18.2161 14.9663 18.5625 13.8244 18.5625 12.6563C18.5607 11.0904 17.9379 9.58912 16.8306 8.48187C15.7234 7.37462 14.2221 6.75179 12.6562 6.75ZM12.6562 16.875C11.8219 16.875 11.0062 16.6276 10.3124 16.164C9.61867 15.7005 9.07794 15.0416 8.75863 14.2707C8.43933 13.4998 8.35578 12.6516 8.51856 11.8332C8.68134 11.0149 9.08314 10.2631 9.67314 9.67314C10.2631 9.08314 11.0149 8.68134 11.8332 8.51856C12.6516 8.35578 13.4998 8.43933 14.2707 8.75863C15.0416 9.07794 15.7004 9.61867 16.164 10.3124C16.6276 11.0062 16.875 11.8219 16.875 12.6563C16.8737 13.7747 16.4288 14.847 15.6379 15.6379C14.847 16.4288 13.7747 16.8737 12.6562 16.875Z" fill="#3E3E3E"/>
</svg>
