<svg width="8" height="7" viewBox="0 0 8 7" fill="none" xmlns="http://www.w3.org/2000/svg">
<path d="M3.58918 0.560293C3.74708 0.117598 4.37315 0.117599 4.53106 0.560294L5.05079 2.01739C5.1218 2.21649 5.31035 2.34941 5.52173 2.34941H7.0969C7.59247 2.34941 7.78612 2.99286 7.37285 3.26637L6.18122 4.05503C5.98943 4.18196 5.90897 4.42334 5.98623 4.63996L6.45986 5.96781C6.62129 6.42039 6.11366 6.81794 5.71297 6.55275L4.33607 5.64147C4.16876 5.53074 3.95147 5.53074 3.78416 5.64147L2.40726 6.55275C2.00657 6.81794 1.49895 6.42038 1.66037 5.96781L2.134 4.63996C2.21127 4.42334 2.1308 4.18196 1.93902 4.05503L0.74738 3.26637C0.334119 2.99286 0.527761 2.34941 1.02333 2.34941H2.59851C2.80989 2.34941 2.99843 2.21649 3.06945 2.01739L3.58918 0.560293Z" fill="#3E3E3E"/>
</svg>
