<svg width="21" height="21" viewBox="0 0 21 21" fill="none" xmlns="http://www.w3.org/2000/svg">
<ellipse cx="9.5" cy="9.93182" rx="9.5" ry="9.93182" fill="#1D1D23"/>
<path d="M15.6994 8.48559C15.9894 8.77551 15.9894 9.24546 15.6994 9.53523L10.7204 14.5144C10.4305 14.8042 9.96069 14.8042 9.67077 14.5144L7.30055 12.1441C7.01064 11.8543 7.01064 11.3843 7.30055 11.0946C7.59032 10.8046 8.06028 10.8046 8.35005 11.0946L10.1955 12.94L14.6498 8.48559C14.9397 8.19582 15.4097 8.19582 15.6994 8.48559ZM21 11.5C21 16.7511 16.7504 21 11.5 21C6.24888 21 2 16.7504 2 11.5C2 6.24888 6.2496 2 11.5 2C16.7511 2 21 6.2496 21 11.5ZM19.5156 11.5C19.5156 7.06934 15.9301 3.48438 11.5 3.48438C7.06934 3.48438 3.48438 7.06992 3.48438 11.5C3.48438 15.9307 7.06992 19.5156 11.5 19.5156C15.9307 19.5156 19.5156 15.9301 19.5156 11.5Z" fill="#FAFAFA"/>
</svg>
