<svg width="20" height="14" viewBox="0 0 20 14" fill="none" xmlns="http://www.w3.org/2000/svg">
<path d="M19.9767 4.93552C20.019 3.63946 19.7335 2.35358 19.1462 1.19624C18.7537 0.713261 18.2004 0.386524 17.5866 0.275222C15.0664 0.0573071 12.5367 -0.0312861 10.0073 0.00988647C7.47804 -0.0315034 4.94837 0.0570898 2.42831 0.275222C1.92907 0.368071 1.46684 0.600908 1.09584 0.946378C0.282466 1.69734 0.22309 2.98456 0.100629 4.06889C-0.0335428 6.02334 -0.0335428 7.98469 0.100629 9.93914C0.122766 10.5512 0.214771 11.1588 0.374862 11.7501C0.483287 12.2079 0.704136 12.6318 1.01754 12.9837C1.3886 13.3479 1.86098 13.5925 2.37343 13.6858C4.33338 13.9277 6.30849 14.0269 8.28297 13.9826V13.9827C11.4596 14.0333 14.2585 13.9797 17.5547 13.7328C18.0815 13.6428 18.5682 13.395 18.9499 13.0225C19.1979 12.7769 19.3856 12.4777 19.4987 12.1481C19.8274 11.1563 19.9889 10.1172 19.9767 9.0729C20.0078 8.53404 20.0078 5.47437 19.9767 4.93552ZM13.3305 6.8011C13.3294 6.80049 13.3283 6.79989 13.3271 6.79928C12.5733 7.21516 11.7019 7.65613 10.7833 8.12043C9.86033 8.58688 8.89042 9.07671 7.94604 9.58804V3.98317V3.98311C8.84348 4.45155 9.73115 4.91209 10.6237 5.37744C11.5151 5.84223 12.4115 6.31188 13.3271 6.79928C13.3306 6.79734 13.3348 6.79531 13.3383 6.79337L13.3305 6.8011Z" fill="black"/>
</svg>
